Coordinates
version=1
nRows=9
nColumns=63
inDegrees=yes

Units are S.I. units (second, meters, Newtons, ...)
If the header above contains a line with 'inDegrees', this indicates whether rotational values are in degrees (yes) or radians (no).

endheader
time	pelvis_tilt	pelvis_list	pelvis_rotation	pelvis_tx	pelvis_ty	pelvis_tz	hip_flexion_r	hip_adduction_r	hip_rotation_r	knee_angle_r	knee_angle_r_beta	ankle_angle_r	subtalar_angle_r	mtp_angle_r	hip_flexion_l	hip_adduction_l	hip_rotation_l	knee_angle_l	knee_angle_l_beta	ankle_angle_l	subtalar_angle_l	mtp_angle_l	L5_S1_Flex_Ext	L5_S1_Lat_Bending	L5_S1_axial_rotation	L4_L5_Flex_Ext	L4_L5_Lat_Bending	L4_L5_axial_rotation	L3_L4_Flex_Ext	L3_L4_Lat_Bending	L3_L4_axial_rotation	L2_L3_Flex_Ext	L2_L3_Lat_Bending	L2_L3_axial_rotation	L1_L2_Flex_Ext	L1_L2_Lat_Bending	L1_L2_axial_rotation	L1_T12_Flex_Ext	L1_T12_Lat_Bending	L1_T12_axial_rotation	Abs_r3	Abs_r2	Abs_r1	Abs_t1	Abs_t2	neck_flexion	neck_bending	neck_rotation	arm_flex_r	arm_add_r	arm_rot_r	elbow_flex_r	pro_sup_r	wrist_flex_r	wrist_dev_r	arm_flex_l	arm_add_l	arm_rot_l	elbow_flex_l	pro_sup_l	wrist_flex_l	wrist_dev_l
      0.03333333	      5.46668734	      1.31476992	    175.06401613	      2.46654565	      0.89738893	      0.57982730	     14.52508267	     -0.65973591	    -10.68426455	     22.79327698	      0.39781773	     17.56782427	     -3.32591640	      0.00000000	      9.64823247	     -2.12162587	     -4.99173729	     15.29642847	      0.26697304	     14.36180243	    -16.67756934	      0.00000000	     -0.00378499	     -0.29775942	     -0.72815533	     -0.00702911	     -0.39602003	     -0.77366504	     -0.00621837	     -0.72397226	     -0.77366504	     -0.00432587	     -0.72397226	     -0.63713591	     -0.00351474	     -0.60719102	     -0.59162620	     -0.00216275	     -0.46122935	     -0.54611650	     -0.02703583	     -3.36831415	     -4.04978149	      0.00000000	      0.00000000	      0.00000000	      0.00000000	      0.00000001	     -6.72740890	     -1.02279679	     -4.93450568	     22.84674686	     53.86079523	      0.00000000	      4.26178331	    -14.93170692	     -8.63201242	      6.16966562	     23.91611412	     57.17422662	      0.00000000	      4.26178331
      0.06666667	      5.15246769	      0.86572873	    174.72282627	      2.46412879	      0.89645945	      0.58195771	     14.45116939	     -1.69925442	    -10.97672018	     23.25883102	      0.40594318	     19.97042225	      0.02335548	      0.00000000	      8.39971176	     -1.15336815	     -4.83411197	     13.47054961	      0.23510544	     14.30801720	    -17.35992261	      0.00000000	     -0.00124415	     -0.26189077	     -0.58388216	     -0.00231052	     -0.34831472	     -0.62037479	     -0.00204402	     -0.63676121	     -0.62037479	     -0.00142194	     -0.63676121	     -0.51089689	     -0.00115532	     -0.53404765	     -0.47440425	     -0.00071091	     -0.40566880	     -0.43791162	     -0.00888687	     -2.96256073	     -3.24737741	      0.00000000	      0.00000000	      0.00000000	      0.00000000	      0.00000001	     -6.18359832	     -3.39848555	      2.45221506	     21.71618586	     55.08500739	      0.00000000	      4.37427657	    -14.43290910	     -8.27406745	     10.20734012	     23.60062895	     57.65666144	      0.00000000	      4.37427657
      0.10000000	      4.99090897	      0.70881023	    174.97038073	      2.46222117	      0.89531195	      0.58393415	     14.26565898	     -2.04784425	    -10.51587782	     23.22588435	      0.40536815	     21.54488845	      0.19574263	      0.00000000	      7.93764533	     -0.66039882	     -4.49502023	     12.91375425	      0.22538753	     15.01725056	    -17.40930172	      0.00000000	      0.00141283	     -0.20384521	     -0.54491088	      0.00262376	     -0.27111413	     -0.57896781	      0.00232114	     -0.49562925	     -0.57896781	      0.00161472	     -0.49562925	     -0.47679702	      0.00131195	     -0.41568115	     -0.44274009	      0.00080729	     -0.31575623	     -0.40868316	      0.01009169	     -2.30593779	     -3.03063087	      0.00000000	      0.00000000	      0.00000000	      0.00000000	      0.00000001	     -6.03135374	     -4.39701029	      2.71083065	     21.30462924	     55.17210702	      0.00000000	      4.37833274	    -14.21940304	     -7.42028263	     10.49040101	     23.49869331	     57.69939558	      0.00000000	      4.37833274
      0.13333333	      4.77446582	      0.42853963	    174.75412759	      2.46042997	      0.89468946	      0.58528306	     13.97085420	     -2.96822829	    -12.82046699	     23.34775512	      0.40749520	     23.07800529	      4.47832780	      0.00000000	      6.87084285	     -0.07554244	     -4.15082961	     11.41572046	      0.19924191	     14.86821148	    -17.76806504	      0.00000000	     -0.00018613	     -0.17260614	     -0.42116260	     -0.00034566	     -0.22956616	     -0.44748526	     -0.00030579	     -0.41967457	     -0.44748526	     -0.00021273	     -0.41967457	     -0.36851728	     -0.00017284	     -0.35197844	     -0.34219461	     -0.00010635	     -0.26736691	     -0.31587195	     -0.00132950	     -1.95255516	     -2.34238004	      0.00000000	      0.00000000	      0.00000000	      0.00000000	      0.00000001	     -4.23582889	     -8.74334909	     26.08130803	     20.24200451	     61.18933710	      0.00000000	      4.58588200	    -13.25887651	     -7.85094439	     17.59911367	     22.57897096	     58.55568914	      0.00000000	      4.58588200
      0.16666667	      4.75909996	      0.22713474	    174.68363673	      2.45953292	      0.89383962	      0.58582464	     13.89899109	     -3.38854868	    -14.03798021	     23.40883734	      0.40856129	     23.90873431	      6.09670292	      0.00000000	      6.56038117	      0.20143735	     -4.10282789	     11.03874538	      0.19266245	     15.20008585	    -17.79291040	      0.00000000	      0.00043887	     -0.14582794	     -0.31609401	      0.00081502	     -0.19395116	     -0.33584989	      0.00072101	     -0.35456606	     -0.33584989	      0.00050158	     -0.35456606	     -0.27658226	      0.00040753	     -0.29737234	     -0.25682639	      0.00025077	     -0.22588748	     -0.23707051	      0.00313478	     -1.64963485	     -1.75802007	      0.00000000	      0.00000000	      0.00000000	      0.00000000	      0.00000001	     -3.51227050	    -10.45825537	     34.59761849	     20.49962385	     62.63138265	      0.00000000	      4.68613314	    -12.88358675	     -7.76750646	     19.35874411	     22.40297516	     58.34349466	      0.00000000	      4.68613314
      0.20000000	      4.85163287	      0.13587563	    174.68904265	      2.45927765	      0.89309042	      0.58593844	     13.94933953	     -3.40581081	    -14.23457629	     23.34773884	      0.40749492	     24.10439399	      5.85724964	      0.00000000	      6.55843326	      0.27650513	     -3.83010017	     11.02978941	      0.19250614	     15.50314499	    -17.92860366	      0.00000000	      0.00089952	     -0.12049236	     -0.22675998	      0.00167051	     -0.16025484	     -0.24093248	      0.00147783	     -0.29296513	     -0.24093248	      0.00102807	     -0.29296513	     -0.19841499	      0.00083530	     -0.24570802	     -0.18424249	      0.00051399	     -0.18664267	     -0.17006999	      0.00642521	     -1.36303370	     -1.26117100	      0.00000000	      0.00000000	      0.00000000	      0.00000000	      0.00000001	     -3.77453506	    -11.12121654	     35.20506551	     21.37636987	     62.69394996	      0.00000000	      4.69297937	    -12.64508450	     -7.63416689	     19.51002709	     22.38962498	     58.32766237	      0.00000000	      4.69297937
      0.23333333	      4.93498951	      0.02971355	    174.68730139	      2.45935913	      0.89265305	      0.58576653	     14.02469782	     -3.45573935	    -14.42520388	     23.28820856	      0.40645592	     24.09507208	      5.72283467	      0.00000000	      6.59370753	      0.33344528	     -3.72810919	     11.04247814	      0.19272760	     15.56687787	    -17.91631224	      0.00000000	      0.00101085	     -0.11398939	     -0.17809920	      0.00187726	     -0.15160588	     -0.18923040	      0.00166073	     -0.27715379	     -0.18923040	      0.00115531	     -0.27715379	     -0.15583680	      0.00093868	     -0.23244716	     -0.14470560	      0.00057760	     -0.17656956	     -0.13357440	      0.00722044	     -1.28947073	     -0.99053431	      0.00000000	      0.00000000	      0.00000000	      0.00000000	      0.00000001	     -3.82068125	    -11.24922975	     35.32111454	     21.42311936	     62.71227956	      0.00000000	      4.69407479	    -12.51948358	     -7.62230620	     19.53845175	     22.44738642	     58.32537464	      0.00000000	      4.69407479
      0.26666667	      4.98936173	      0.17665869	    174.74186928	      2.45953260	      0.89238392	      0.58562485	     14.03644805	     -3.17632144	    -14.07714359	     23.13117688	      0.40371520	     23.72173884	      4.92365563	      0.00000000	      6.71135339	      0.14519208	     -3.16615865	     11.28401800	      0.19694327	     15.62306762	    -18.06902637	      0.00000000	     -0.00011542	     -0.09380819	     -0.17943040	     -0.00021436	     -0.12476489	     -0.19064480	     -0.00018963	     -0.22808523	     -0.19064480	     -0.00013192	     -0.22808523	     -0.15700160	     -0.00010718	     -0.19129366	     -0.14578720	     -0.00006595	     -0.14530888	     -0.13457280	     -0.00082447	     -1.06117698	     -0.99793806	      0.00000000	      0.00000000	      0.00000000	      0.00000000	      0.00000001	     -3.56493930	    -11.62685343	     37.78120220	     21.57859074	     62.54042256	      0.00000000	      4.73088554	    -12.39031239	     -7.71949833	     20.50366152	     22.48697713	     58.69182097	      0.00000000	      4.73088554
      0.30000000	      5.00054377	      0.33479743	    174.56623841	      2.45957207	      0.89227370	      0.58509941	     14.04476299	     -2.96425183	    -13.86888593	     23.04565595	      0.40222257	     23.42141510	      4.90751935	      0.00000000	      6.74953752	     -0.06268432	     -3.03740283	     11.44990761	      0.19983859	     15.54551618	    -17.89579721	      0.00000000	      0.00005733	     -0.08692803	     -0.17866237	      0.00010647	     -0.11561428	     -0.18982877	      0.00009419	     -0.21135681	     -0.18982877	      0.00006552	     -0.21135681	     -0.15632957	      0.00005324	     -0.17726364	     -0.14516317	      0.00003276	     -0.13465152	     -0.13399678	      0.00040951	     -0.98334725	     -0.99366649	      0.00000000	      0.00000000	      0.00000000	      0.00000000	      0.00000001	     -3.50136911	    -11.44011421	     37.66927110	     21.36060118	     61.93131493	      0.00000000	      4.74811388	    -12.51653521	     -7.70267005	     20.40517746	     22.61526512	     58.22310288	      0.00000000	      4.74811388
